<svg width="165" height="256" viewBox="0 0 165 256" fill="none" xmlns="http://www.w3.org/2000/svg">
<rect width="164.78" height="255.409" rx="82.3902" fill="#FEF8EE"/>
<g clip-path="url(#clip0_442_355)">
<path d="M94.5527 202.005V220.039C105.227 217.442 114.548 211.381 121.163 203.11V202.005H94.5527Z" fill="#C3191F"/>
<path d="M70.2275 202.005V219.95C74.0763 220.935 78.1055 221.443 82.285 221.443H82.9766C86.9757 221.443 90.8545 220.965 94.583 220.069V202.035H70.2275V202.005Z" fill="white"/>
<path d="M43.5869 202.005V202.543C50.1719 210.993 59.4631 217.233 70.1975 219.92V201.976H43.5869V202.005Z" fill="#143B65"/>
<path d="M82.5254 222.1H82.2548C54.9225 222.1 32.6719 200.005 32.6719 172.865L32.6719 82.5452C32.6719 55.4047 54.9225 33.3101 82.2548 33.3101H82.5254C109.858 33.3101 132.108 55.4047 132.108 82.5452V172.865C132.108 200.005 109.858 222.1 82.5254 222.1ZM82.2548 34.6537C55.6743 34.6537 34.025 56.1213 34.025 82.5452L34.025 172.865C34.025 199.259 55.6442 220.756 82.2548 220.756H82.5254C109.106 220.756 130.755 199.288 130.755 172.865V82.5452C130.755 56.1511 109.136 34.6537 82.5254 34.6537H82.2548Z" fill="#2D2D29"/>
<path d="M59.4035 222.607L55.4646 229.952L54.4122 229.385L56.1561 226.101L51.9165 223.861L50.1725 227.146L49.1201 226.578L53.0591 219.233L54.1115 219.801L52.4276 222.966L56.6673 225.205L58.3511 222.04L59.4035 222.607Z" fill="#2D2D29"/>
<path d="M65.6879 232.52L65.3571 233.505L59.584 231.624L62.1999 223.742L67.8227 225.563L67.492 226.548L63.0118 225.085L62.1999 227.504L66.199 228.818L65.8683 229.773L61.8692 228.459L61.0273 230.997L65.6578 232.52H65.6879Z" fill="#2D2D29"/>
<path d="M77.5047 227.235L76.2719 235.476L75.3097 235.327L71.2505 228.459L70.3484 234.58L69.1758 234.401L70.4086 226.16L71.3708 226.31L75.43 233.177L76.3321 227.056L77.5047 227.235Z" fill="#2D2D29"/>
<path d="M87.6979 227.205L87.9084 235.506H86.9161L81.7443 229.474L81.8947 235.655H80.6919L80.4814 227.384H81.4737L86.6455 233.416L86.4951 227.235H87.6979V227.205Z" fill="#2D2D29"/>
<path d="M97.1697 231.893L92.8098 232.759L92.3287 234.968L91.126 235.207L93.1706 226.31L94.3433 226.071L99.7256 233.475L98.4928 233.714L97.1697 231.863V231.893ZM96.5684 231.057L93.9825 227.414L93.0203 231.774L96.5684 231.057Z" fill="#2D2D29"/>
<path d="M107.965 230.52L105.349 228.788C105.198 228.847 105.048 228.937 104.867 228.997L102.943 229.743L103.875 232.102L102.763 232.52L99.7559 224.757L102.793 223.593C104.837 222.816 106.461 223.354 107.093 225.056C107.544 226.25 107.273 227.355 106.341 228.161L109.197 230.042L107.995 230.52H107.965ZM105.95 225.474C105.529 224.369 104.537 224.011 103.093 224.578L101.199 225.294L102.552 228.788L104.447 228.071C105.86 227.534 106.371 226.608 105.95 225.474Z" fill="#2D2D29"/>
<path d="M110.099 221.323L107.603 222.727L107.092 221.831L113.105 218.427L113.617 219.323L111.121 220.726L114.759 227.056L113.737 227.653L110.099 221.323Z" fill="#2D2D29"/>
<path d="M23.3811 194.75L22.3287 191.406C21.5169 188.868 22.5993 186.629 24.9747 185.882C27.3502 185.136 29.5151 186.39 30.2969 188.928L31.3493 192.272L23.351 194.75H23.3811ZM29.3647 189.316C28.7634 187.345 27.1397 186.48 25.3656 187.017C23.5615 187.584 22.7497 189.197 23.3811 191.167L24.0426 193.317L30.0563 191.466L29.3948 189.316H29.3647Z" fill="#2D2D29"/>
<path d="M26.8393 176.149L27.8616 176.029L28.5832 182.031L20.2843 183.016L19.5928 177.194L20.6151 177.074L21.1563 181.732L23.7122 181.434L23.2311 177.283L24.2534 177.164L24.7345 181.314L27.4106 180.986L26.8393 176.179V176.149Z" fill="#2D2D29"/>
<path d="M26.929 173.909L25.9969 173.462C26.5682 172.835 26.9591 171.79 26.9591 170.715C26.9591 169.282 26.3878 168.655 25.6661 168.655C23.6215 168.655 24.9144 173.7 21.7873 173.7C20.4944 173.7 19.3818 172.715 19.3818 170.506C19.3818 169.52 19.6525 168.535 20.1335 167.818L21.0957 168.207C20.6146 168.923 20.4042 169.759 20.4042 170.476C20.4042 171.879 21.0055 172.506 21.7272 172.506C23.7718 172.506 22.4789 167.46 25.5759 167.46C26.8689 167.46 27.9513 168.475 27.9513 170.685C27.9513 171.969 27.5304 173.193 26.899 173.88L26.929 173.909Z" fill="#2D2D29"/>
<path d="M20.5543 159.011H23.471V154.83H24.4933V159.011H27.8911V160.205H19.502V154.323H20.5543V159.011Z" fill="#2D2D29"/>
<path d="M27.8909 145.903L25.305 147.694C25.305 147.874 25.305 148.053 25.305 148.232V150.292H27.8608V151.486H19.4717V148.232C19.4717 146.082 20.5842 144.768 22.3883 144.768C23.6813 144.768 24.6134 145.425 25.0343 146.59L27.8608 144.619V145.903H27.8909ZM22.4485 145.933C21.2457 145.933 20.5842 146.739 20.5842 148.262V150.292H24.3428V148.262C24.3428 146.739 23.6512 145.933 22.4485 145.933Z" fill="#2D2D29"/>
<path d="M23.6818 142.32C21.2162 142.32 19.4121 140.439 19.4121 137.901C19.4121 135.363 21.2162 133.482 23.6818 133.482C26.1474 133.482 27.9516 135.363 27.9516 137.901C27.9516 140.439 26.1174 142.32 23.6818 142.32ZM23.6818 134.677C21.8176 134.677 20.4645 136.05 20.4645 137.901C20.4645 139.752 21.8176 141.156 23.6818 141.156C25.5461 141.156 26.8992 139.782 26.8992 137.901C26.8992 136.02 25.5461 134.677 23.6818 134.677Z" fill="#2D2D29"/>
<path d="M27.8911 122.763H21.7872L26.8687 125.779V126.316L21.8172 129.332H27.8911V130.467H19.502V129.481L25.3954 126.018L19.502 122.584V121.599H27.8911V122.734V122.763Z" fill="#2D2D29"/>
<path d="M25.7863 112.672V117.09L27.8911 118.016V119.24L19.502 115.478V114.314L27.8911 110.522V111.776L25.7863 112.701V112.672ZM24.8241 113.09L20.7348 114.881L24.8241 116.672V113.09Z" fill="#2D2D29"/>
<path d="M23.652 102.43V101.296H26.9294C27.621 102.132 27.9818 103.266 27.9818 104.431C27.9818 106.999 26.1777 108.85 23.7121 108.85C21.2465 108.85 19.4424 106.969 19.4424 104.401C19.4424 103.087 19.8934 101.953 20.7353 101.206L21.487 101.953C20.8255 102.639 20.5248 103.416 20.5248 104.371C20.5248 106.282 21.8779 107.685 23.7422 107.685C25.6064 107.685 26.9595 106.282 26.9595 104.371C26.9595 103.684 26.8092 103.027 26.4183 102.43H23.682H23.652Z" fill="#2D2D29"/>
<path d="M26.8387 91.801H27.8911V97.8323H19.502V91.9503H20.5543V96.638H23.1402V92.4579H24.1626V96.638H26.8687V91.801H26.8387Z" fill="#2D2D29"/>
<path d="M26.929 89.4423L25.9969 88.9944C26.5682 88.3674 26.9591 87.3224 26.9591 86.2475C26.9591 84.8144 26.3878 84.1874 25.6661 84.1874C23.6215 84.1874 24.9144 89.2333 21.7873 89.2333C20.4944 89.2333 19.3818 88.248 19.3818 86.0385C19.3818 85.0532 19.6525 84.0679 20.1335 83.3513L21.0957 83.7395C20.6146 84.4561 20.4042 85.2921 20.4042 86.0087C20.4042 87.412 21.0055 88.039 21.7272 88.039C23.7718 88.039 22.4789 82.993 25.5759 82.993C26.8689 82.993 27.9513 84.0082 27.9513 86.2177C27.9513 87.5015 27.5304 88.7257 26.899 89.4124L26.929 89.4423Z" fill="#2D2D29"/>
<path d="M19.8633 74.6031L20.4947 71.1694C20.9758 68.542 22.9904 67.0491 25.4259 67.497C27.8615 67.9448 29.2146 70.0348 28.7335 72.6623L28.102 76.0959L19.8633 74.6031ZM27.6811 72.5429C28.0419 70.5126 27.0496 68.9898 25.2155 68.6614C23.3813 68.333 21.8779 69.378 21.517 71.4083L21.0961 73.6178L27.2902 74.7524L27.7112 72.5429H27.6811Z" fill="#2D2D29"/>
<path d="M31.5899 59.734L32.5521 60.0923L30.3871 65.7353L22.5693 62.7794L24.6741 57.2856L25.6363 57.6439L23.9525 62.0031L26.358 62.8989L27.8614 59.0174L28.8236 59.3757L27.3202 63.2572L29.8459 64.2126L31.5899 59.6743V59.734Z" fill="#2D2D29"/>
<path d="M32.1007 52.0904C30.0861 50.6871 29.6952 48.1194 31.1385 46.0293C31.8902 44.9843 32.8825 44.3274 34.0251 44.1782L34.2055 45.253C33.2733 45.4023 32.5818 45.8502 32.0405 46.5966C30.9581 48.1194 31.2588 50.0601 32.7923 51.1051C34.2957 52.1501 36.2201 51.7919 37.3025 50.2691C37.8438 49.5227 38.0242 48.6867 37.8438 47.7909L38.8962 47.5819C39.1668 48.6867 38.8962 49.881 38.1444 50.926C36.7012 52.9862 34.1153 53.4937 32.1007 52.0904Z" fill="#2D2D29"/>
<path d="M43.7374 41.282L40.6103 44.4171L41.4522 46.5369L40.5802 47.4028L37.3027 38.8635L38.1447 38.0275L46.7743 41.2223L45.9023 42.118L43.7675 41.3119L43.7374 41.282ZM42.7752 40.8939L38.5957 39.2815L40.2194 43.4318L42.7752 40.8939Z" fill="#2D2D29"/>
<path d="M52.9983 36.7735L50.0516 35.7285C50.0516 35.7285 49.781 35.9375 49.6307 36.0569L47.9468 37.2512L49.4202 39.3114L48.4279 39.9981L43.5869 33.1906L46.263 31.3096C48.037 30.0555 49.751 30.2048 50.8033 31.6679C51.5551 32.7129 51.525 33.8475 50.8033 34.8626L54.0507 35.9972L52.9983 36.7436V36.7735ZM49.8111 32.3546C49.1195 31.3693 48.0671 31.2797 46.8343 32.1754L45.1805 33.3399L47.3455 36.3854L48.9992 35.2209C50.2621 34.355 50.5027 33.31 49.8111 32.3546Z" fill="#2D2D29"/>
<path d="M60.3347 30.6228L56.3055 32.5038L56.3656 34.773L55.2531 35.2806L55.1328 26.1442L56.2153 25.6366L63.2212 31.5783L62.0786 32.1157L60.3647 30.6228H60.3347ZM59.5529 29.9361L56.1852 27.01L56.2754 31.4588L59.5529 29.9361Z" fill="#2D2D29"/>
<path d="M63.3118 27.1892C62.6803 24.8305 64.0334 22.5911 66.4689 21.9343C67.7017 21.6058 68.9045 21.7253 69.8667 22.3523L69.3254 23.2779C68.5136 22.8001 67.6717 22.7106 66.7997 22.9494C64.9655 23.4271 63.9733 25.0992 64.4544 26.8906C64.9355 28.6821 66.6494 29.6077 68.4535 29.13C69.3555 28.8911 70.017 28.3835 70.468 27.5475L71.4002 28.0551C70.889 29.0702 69.9268 29.8167 68.6639 30.1451C66.2284 30.802 63.9131 29.548 63.2817 27.1892H63.3118Z" fill="#2D2D29"/>
<path d="M75.1584 21.4864L72.3019 21.785L72.1816 20.7698L79.0673 20.0532L79.1876 21.0684L76.3311 21.367L77.0828 28.6224L75.9101 28.7418L75.1584 21.4864Z" fill="#2D2D29"/>
<path d="M88.2387 27.5176V28.5626L82.1348 28.3238L82.4655 20.0234L88.3589 20.2622V21.3072L83.6081 21.1281L83.5179 23.666L87.7275 23.8153V24.8304L83.4878 24.6812L83.3676 27.3683L88.2387 27.5475V27.5176ZM85.2619 19.4262L83.3074 17.8139L84.7507 17.8736L86.3143 19.4859H85.2318L85.2619 19.4262Z" fill="#2D2D29"/>
<path d="M96.4471 30.0854L95.2143 27.2191C95.0339 27.2191 94.8835 27.1593 94.7031 27.1295L92.6885 26.7115L92.1473 29.1897L90.9746 28.9508L92.7186 20.8295L95.9058 21.5163C98.0407 21.9641 99.0931 23.3077 98.7022 25.0693C98.4316 26.3233 97.5897 27.0996 96.3569 27.2489L97.7099 30.384L96.4471 30.1152V30.0854ZM97.5596 24.7707C97.8001 23.6063 97.1687 22.7703 95.6653 22.4717L93.6808 22.0537L92.899 25.6963L94.8835 26.1143C96.3869 26.4428 97.3191 25.9352 97.5596 24.7707Z" fill="#2D2D29"/>
<path d="M106.28 32.474L105.889 33.4294L100.236 31.1901L103.333 23.457L108.806 25.6366L108.415 26.592L104.025 24.8603L103.063 27.219L106.972 28.7716L106.581 29.6972L102.672 28.1446L101.68 30.6228L106.22 32.4143L106.28 32.474Z" fill="#2D2D29"/>
<path d="M116.683 30.0256L117.676 30.6825L113.045 37.6095L112.053 36.9526L116.683 30.0256Z" fill="#2D2D29"/>
<path d="M115.932 38.3858L116.864 37.9678C116.984 38.8038 117.525 39.7891 118.337 40.4758C119.45 41.4014 120.292 41.3715 120.743 40.8341C122.066 39.2815 117.375 37.0123 119.39 34.6536C120.231 33.6683 121.705 33.4891 123.389 34.8924C124.14 35.5194 124.742 36.3853 124.952 37.1915L124.02 37.6692C123.78 36.8332 123.268 36.1465 122.727 35.6687C121.645 34.7431 120.803 34.8029 120.322 35.3702C118.999 36.9228 123.689 39.2218 121.705 41.5208C120.863 42.4763 119.39 42.6554 117.706 41.2521C116.743 40.4161 116.052 39.3114 115.932 38.3858Z" fill="#2D2D29"/>
<path d="M122.307 43.9393L123.299 43.6706C123.299 44.5066 123.66 45.5516 124.381 46.3876C125.343 47.4625 126.155 47.5819 126.727 47.1042C128.26 45.7606 123.96 42.8047 126.306 40.7744C127.268 39.9384 128.771 39.9682 130.215 41.6104C130.846 42.3568 131.327 43.2824 131.417 44.1184L130.425 44.4469C130.305 43.581 129.914 42.8346 129.433 42.2673C128.501 41.1924 127.659 41.1327 127.087 41.6104C125.554 42.954 129.824 45.9099 127.508 47.9104C126.546 48.7464 125.043 48.6867 123.599 47.0445C122.758 46.089 122.246 44.8649 122.307 43.9691V43.9393Z" fill="#2D2D29"/>
<path d="M130.394 49.5525L134.454 47.1042L135.085 48.1193L131.056 50.5378C129.462 51.4933 129.192 52.6577 129.973 53.9117C130.755 55.1657 131.928 55.4942 133.491 54.5387L137.521 52.1203L138.122 53.1056L134.063 55.5539C131.988 56.8079 130.214 56.3302 129.071 54.4492C127.929 52.5681 128.32 50.7767 130.394 49.5227V49.5525Z" fill="#2D2D29"/>
<path d="M132.98 59.3458L134.003 59.4055C133.702 60.1818 133.702 61.3164 134.123 62.3017C134.664 63.6453 135.416 64.0036 136.077 63.7349C137.972 62.9884 134.935 58.7785 137.821 57.6439C139.024 57.1662 140.407 57.7036 141.219 59.734C141.58 60.6297 141.7 61.6747 141.52 62.4809H140.497C140.678 61.615 140.558 60.779 140.287 60.0923C139.776 58.7785 138.994 58.4202 138.302 58.6889C136.408 59.4354 139.445 63.6453 136.589 64.7799C135.386 65.2576 134.003 64.6903 133.191 62.66C132.71 61.4657 132.68 60.152 133.01 59.316L132.98 59.3458Z" fill="#2D2D29"/>
<path d="M144.497 71.259L144.918 74.7225C145.249 77.3798 143.775 79.3803 141.28 79.6789C138.784 79.9775 136.92 78.3651 136.589 75.7078L136.168 72.2443L144.467 71.259H144.497ZM137.611 75.5287C137.852 77.559 139.265 78.7234 141.129 78.5144C142.994 78.3054 144.106 76.8424 143.866 74.8121L143.595 72.5728L137.341 73.3192L137.611 75.5585V75.5287Z" fill="#2D2D29"/>
<path d="M138.032 88.9944H136.979V82.9632H145.369V88.8451H144.316V84.1575H141.73V88.3376H140.708V84.1575H138.002V88.9944H138.032Z" fill="#2D2D29"/>
<path d="M145.369 103.655H136.979V102.669L143.234 97.683H136.979V96.4887H145.369V97.474L139.114 102.46H145.369V103.655Z" fill="#2D2D29"/>
<path d="M141.159 106.64C143.625 106.64 145.429 108.521 145.429 111.059C145.429 113.597 143.625 115.478 141.159 115.478C138.694 115.478 136.89 113.597 136.89 111.059C136.89 108.521 138.724 106.64 141.159 106.64ZM141.159 114.284C143.024 114.284 144.377 112.91 144.377 111.059C144.377 109.208 143.024 107.805 141.159 107.805C139.295 107.805 137.942 109.178 137.942 111.059C137.942 112.94 139.295 114.284 141.159 114.284Z" fill="#2D2D29"/>
<path d="M137.942 117.717L138.874 118.165C138.303 118.792 137.912 119.837 137.912 120.912C137.912 122.345 138.483 122.972 139.205 122.972C141.25 122.972 139.957 117.926 143.084 117.926C144.377 117.926 145.489 118.912 145.489 121.121C145.489 122.107 145.219 123.092 144.738 123.808L143.776 123.42C144.257 122.704 144.467 121.868 144.467 121.151C144.467 119.748 143.866 119.121 143.144 119.121C141.099 119.121 142.392 124.167 139.295 124.167C138.002 124.167 136.92 123.152 136.92 120.942C136.92 119.658 137.341 118.434 137.972 117.747L137.942 117.717Z" fill="#2D2D29"/>
<path d="M136.979 136.976L139.565 135.184C139.565 135.005 139.565 134.826 139.565 134.647V132.587H137.01V131.392H145.399V134.647C145.399 136.796 144.286 138.11 142.482 138.11C141.189 138.11 140.257 137.453 139.836 136.289L137.01 138.259V136.976H136.979ZM142.422 136.946C143.625 136.946 144.286 136.14 144.286 134.617V132.587H140.528V134.617C140.528 136.14 141.219 136.946 142.422 136.946Z" fill="#2D2D29"/>
<path d="M138.032 147.276H136.979V141.245H145.369V147.127H144.316V142.44H141.73V146.62H140.708V142.44H138.002V147.276H138.032ZM146.06 144.38V143.305L147.624 144.918V146.381L146.06 144.38Z" fill="#2D2D29"/>
<path d="M141.22 156.114V157.249H137.942C137.25 156.413 136.89 155.278 136.89 154.114C136.89 151.546 138.694 149.695 141.159 149.695C143.625 149.695 145.429 151.576 145.429 154.144C145.429 155.457 144.978 156.592 144.136 157.338L143.384 156.592C144.046 155.905 144.347 155.129 144.347 154.174C144.347 152.263 142.994 150.859 141.129 150.859C139.265 150.859 137.912 152.263 137.912 154.174C137.912 154.86 138.062 155.517 138.453 156.114H141.189H141.22Z" fill="#2D2D29"/>
<path d="M145.369 160.712V161.907H136.979V160.712H145.369Z" fill="#2D2D29"/>
<path d="M141.159 164.922C143.625 164.922 145.429 166.803 145.429 169.341C145.429 171.879 143.625 173.76 141.159 173.76C138.694 173.76 136.89 171.879 136.89 169.341C136.89 166.803 138.724 164.922 141.159 164.922ZM141.159 172.566C143.024 172.566 144.377 171.192 144.377 169.341C144.377 167.49 143.024 166.087 141.159 166.087C139.295 166.087 137.942 167.46 137.942 169.341C137.942 171.222 139.295 172.566 141.159 172.566Z" fill="#2D2D29"/>
<path d="M144.347 184.688L136.048 183.583L136.168 182.628L143.024 178.508L136.83 177.701L136.98 176.537L145.279 177.642L145.159 178.597L138.303 182.718L144.497 183.524L144.347 184.688Z" fill="#2D2D29"/>
<path d="M136.348 186.39L137.1 187.077C136.378 187.495 135.657 188.39 135.326 189.406C134.875 190.779 135.236 191.525 135.927 191.764C137.882 192.391 138.182 187.196 141.129 188.122C142.362 188.51 143.114 189.794 142.422 191.884C142.121 192.809 141.58 193.705 140.889 194.213L140.107 193.556C140.768 193.018 141.219 192.302 141.46 191.585C141.881 190.242 141.52 189.495 140.798 189.256C138.844 188.629 138.543 193.824 135.596 192.899C134.364 192.511 133.642 191.197 134.304 189.107C134.694 187.883 135.476 186.838 136.288 186.39H136.348Z" fill="#2D2D29"/>
<path d="M42.8955 216.994C38.3552 212.993 34.4463 208.395 31.2891 203.259L32.4617 202.543C35.5588 207.559 39.3474 212.067 43.7975 215.979L42.8955 216.994Z" fill="#2D2D29"/>
<path d="M122.036 216.994L121.134 215.979C125.584 212.067 129.403 207.559 132.47 202.543L133.642 203.259C130.485 208.395 126.576 213.023 122.036 216.994Z" fill="#2D2D29"/>
<path d="M82.5858 242.463H82.225C44.008 242.463 12.9473 211.62 12.9473 173.701L12.9473 81.7391C12.9473 43.7901 44.008 12.9471 82.225 12.9471H82.5858C120.773 12.9471 151.864 43.7901 151.864 81.7391V173.701C151.864 211.62 120.803 242.463 82.5858 242.463ZM82.225 14.3206C44.7898 14.3206 14.3304 44.5664 14.3304 81.7391L14.3304 173.701C14.3304 210.873 44.7898 241.119 82.225 241.119H82.5858C120.021 241.119 150.48 210.873 150.48 173.701V81.7391C150.48 44.5664 120.021 14.3206 82.5858 14.3206H82.225Z" fill="#2D2D29"/>
<path d="M121.554 140.529C121.103 140.409 120.652 140.26 120.171 140.2C114.218 139.603 108.775 139.125 102.792 138.857C97.2591 138.737 93.8614 138.737 92.8691 138.707C92.8691 136.11 92.809 133.721 92.8691 131.333C92.9894 126.764 93.0796 122.226 93.3803 117.658C94.0117 107.835 94.6732 98.0114 95.5151 88.1883C96.0864 81.5599 96.2368 74.8718 97.9807 68.3927C98.0709 68.0344 98.1311 67.6164 98.101 67.2283C97.9807 64.7202 98.4318 62.1525 96.4473 60.0326C94.1921 57.5843 92.5083 57.7634 91.516 60.9283C90.5839 63.9439 89.772 67.079 89.4413 70.214C88.7197 77.0215 88.3588 83.8589 87.8176 90.6963C87.6071 93.4432 87.3666 96.1901 87.1561 98.937C86.8554 103.057 86.4044 107.178 86.3442 111.298C86.2841 115.389 85.2016 119.419 85.9834 123.51C85.9834 123.54 85.9834 123.599 85.9834 123.629C85.803 126.705 85.6527 129.78 85.4121 132.855C85.2618 134.766 84.9912 136.677 84.7506 138.618C81.9542 138.618 79.2782 138.618 76.6021 138.618C75.3693 138.618 74.7979 137.841 75.0986 136.617C75.249 136.05 75.4595 135.423 75.4294 134.856C75.0385 127.839 75.6699 120.853 76.2713 113.866C76.7825 107.775 77.1734 101.684 77.6845 95.593C78.1055 90.547 78.5264 85.5011 79.1879 80.4552C79.9096 74.9614 80.5711 69.5273 78.6768 64.1529C78.3761 63.2871 76.6021 62.0927 75.7301 62.3018C74.2266 62.66 72.9036 64.1231 72.7834 65.6757C72.0918 73.9761 71.31 82.3063 70.7387 90.6068C69.7765 104.282 68.9045 117.986 68.0325 131.661C67.8822 133.93 67.8221 136.199 67.7018 138.588C67.0703 138.588 66.5291 138.588 65.9578 138.588C60.2448 138.409 54.622 138.916 48.9992 140.111C45.4211 140.887 41.7226 141.156 38.0843 141.693C36.4306 141.932 34.7768 142.29 33.123 142.619C33.123 142.828 33.1531 143.037 33.1832 143.276C44.519 144.41 55.9149 144.112 67.2808 144.38C67.2808 145.037 67.2808 145.575 67.2808 146.082C67.2207 169.132 67.1305 181.195 67.341 186.599C67.4312 188.689 68.1227 190.839 68.9647 192.75C69.8366 194.69 72.2722 194.571 73.2645 192.66C73.6854 191.884 73.9861 190.958 74.0162 190.092C74.1064 187.375 73.926 184.688 74.0162 181.971C74.2266 177.582 74.5875 148.889 74.8882 144.5H84.7807C84.8709 145.007 84.6303 159.608 84.6604 161.041C84.8408 168.207 92.5083 171.163 92.839 165.161C92.8691 164.564 92.7488 164.892 92.6286 165.221C92.9894 162.922 92.8992 148.531 92.7488 147.187C92.6586 146.321 92.7488 145.425 92.7488 144.53C95.6655 144.53 96.7179 144.41 101.228 143.932C110.61 142.917 109.978 142.26 117.435 141.663C118.788 141.544 120.111 141.186 121.434 140.917C121.434 140.768 121.434 140.618 121.434 140.499L121.554 140.529Z" fill="#2D2D29"/>
</g>
<defs>
<clipPath id="clip0_442_355">
<rect width="138.886" height="229.515" fill="white" transform="translate(12.9473 12.9471)"/>
</clipPath>
</defs>
</svg>
