<?xml version="1.0" encoding="utf-8"?>
<!-- Generator: Adobe Illustrator 28.0.0, SVG Export Plug-In . SVG Version: 6.00 Build 0)  -->
<svg version="1.1" id="Calque_1" xmlns="http://www.w3.org/2000/svg" xmlns:xlink="http://www.w3.org/1999/xlink" x="0px" y="0px"
	 width="202.2px" height="168.1px" viewBox="0 0 202.2 168.1" style="enable-background:new 0 0 202.2 168.1;" xml:space="preserve"
	>
<style type="text/css">
	.st0{clip-path:url(#SVGID_00000065785874758481859600000017725426862154258569_);}
	.st1{fill:#EFC0B9;}
	.st2{fill:#20201E;}
</style>
<g>
	<defs>
		<polygon id="SVGID_1_" points="10.8,0 202.2,14.4 191.4,168.1 0,153.8 		"/>
	</defs>
	<clipPath id="SVGID_00000165196902805554909860000016479066160695579790_">
		<use xlink:href="#SVGID_1_"  style="overflow:visible;"/>
	</clipPath>
	<g style="clip-path:url(#SVGID_00000165196902805554909860000016479066160695579790_);">
		<path class="st1" d="M95.7,160.9c52.8,4,98.1-27.2,101.1-69.7c3-42.5-37.4-80.1-90.3-84.1C53.7,3.2,8.4,34.4,5.4,76.9
			C2.4,119.3,42.8,157,95.7,160.9z"/>
		<path class="st2" d="M96.3,153.4c-3-0.2-5.9-0.6-8.9-1c-26.4-4.2-48.9-17.6-61.8-36.9c-9.4-14-12.7-29.6-9.6-45
			c7.6-37.6,52-62.2,98.9-54.7c26.4,4.2,48.9,17.6,61.8,36.9c9.4,14,12.7,29.6,9.6,45C179.2,132.9,139.8,156.6,96.3,153.4
			L96.3,153.4z M105.9,15.5c-43.2-3.2-82.2,20.2-89.2,55.1c-3.1,15.2,0.2,30.6,9.5,44.4c12.8,19.1,35.2,32.4,61.3,36.5
			c3,0.5,5.9,0.8,8.9,1c43.2,3.2,82.2-20.2,89.2-55.1c3.1-15.2-0.2-30.6-9.5-44.4c-12.8-19.1-35.2-32.4-61.3-36.5
			C111.8,16.1,108.8,15.7,105.9,15.5L105.9,15.5z"/>
		<path class="st2" d="M60.4,68c-1.3,5.3-4.9,8.3-8.4,8.3c-1.3,0-3.1-0.2-4.5-0.3l-4.9-0.4l0-0.2c1.1,0.1,2.2-0.7,2.6-4.4L46,60.5
			c0.2-3.8-0.9-4.7-1.9-4.7l0-0.2l4.3,0.3c2.2,0.1,6,0.1,8.2,1C60.8,58.5,61.5,63.5,60.4,68L60.4,68z M58.1,63.7
			c0.1-5.4-2.7-7.1-6.3-7.3c-2.2-0.1-3,1.7-3.2,4.8l0-0.1L48,69.2l0-0.1c-0.5,7.1,1.4,6.8,3.7,6.5C55,75.1,57.9,71,58.1,63.7
			L58.1,63.7z"/>
		<path class="st2" d="M49.5,76.3c-0.7,0-1.3-0.1-2-0.2l-5-0.4l0-0.5l0.1,0c1.3,0.1,2.1-1.3,2.5-4.3l0.7-10.5
			c0.2-4.5-1.3-4.6-1.8-4.6l-0.1,0l0-0.5l4.5,0.3c0.4,0,0.8,0,1.3,0.1c2.1,0.1,5.1,0.2,6.9,0.9c4.5,1.8,5,7,3.9,11.3
			c-1.2,5-4.6,8.4-8.5,8.4C51.3,76.4,50.4,76.4,49.5,76.3L49.5,76.3z M43,75.5l4.5,0.3c1.6,0.1,3.2,0.3,4.5,0.3
			c3.8,0,7.1-3.3,8.3-8.2c1-4.2,0.5-9.3-3.8-11c-1.7-0.7-4.6-0.8-6.8-0.9c-0.5,0-0.9,0-1.3-0.1l-4-0.3c1.3,0.3,1.9,1.9,1.7,4.8
			L45.4,71C45.1,73.9,44.3,75.4,43,75.5z M50,75.9c-0.5,0-0.9-0.2-1.2-0.5c-0.9-0.8-1.2-2.8-1-6.1l0.6-8.1l0,0
			c0.2-2.5,0.8-5,3.4-4.9c0.1,0,0.1,0,0.2,0c4.3,0.3,6.3,2.8,6.2,7.5c-0.2,8.1-3.6,11.5-6.5,12C51.1,75.8,50.6,75.9,50,75.9L50,75.9
			z M48.1,69.1c-0.2,3.3,0,5.3,0.9,6c0.7,0.6,1.7,0.5,2.7,0.3c2.8-0.4,6.1-3.7,6.3-11.7c0.1-4.6-1.9-6.9-6.2-7.2
			c-1.9-0.1-2.8,1.3-3.1,4.7l0,0L48.1,69.1z"/>
		<path class="st2" d="M75.6,78.1l-13.4-1l0-0.2c1.1,0.1,2.2-0.7,2.6-4.4L65.6,62c0.2-3.8-0.9-4.7-1.9-4.7l0-0.2l6.9,0.5l6.3,0.4
			l0.3,3.2c0,0-0.6-1.6-2.1-2.3c-1.5-0.7-3.6-0.9-4.3-0.9l-0.1,0l-0.1,0c-1,0-2,0.7-2.3,4.1l-0.3,4.3l4.7,0.4c0,0,1.2,0,1.9-0.4
			c0.4-0.2,0.9-0.9,0.9-0.9l-0.3,3.6c0,0-0.5-1-1.2-1.5c-0.5-0.3-1.5-0.4-1.5-0.4l-4.6-0.3l-0.4,5.8c-0.1,3.5,0.7,4.3,1.8,4.5
			c1.3,0.1,3.2,0.2,4.7-0.3c1.5-0.5,3.4-2.4,3.4-2.4L75.6,78.1L75.6,78.1z"/>
		<path class="st2" d="M75.7,78.3l-13.6-1l0-0.5l0.1,0c1.3,0.1,2.1-1.3,2.5-4.3L65.5,62c0.2-4-1-4.5-1.8-4.6l-0.1,0l0-0.5l7,0.5
			l6.4,0.4l0.3,3.3L77,61.2c0,0-0.6-1.6-2-2.3c-1.5-0.7-3.8-0.8-4.2-0.9l-0.1,0l-0.1,0c-0.8,0-1.8,0.4-2.2,4L68,66.3l4.6,0.3
			c0,0,1.2,0,1.8-0.4c0.3-0.2,0.9-0.8,0.9-0.8l0.2-0.3l-0.3,4.4L75,69.1c0,0-0.5-1-1.1-1.4c-0.5-0.3-1.5-0.4-1.5-0.4L68,67l-0.4,5.7
			c-0.1,3.6,0.8,4.2,1.7,4.4c1.1,0.1,3.1,0.2,4.6-0.3c1.4-0.5,3.3-2.4,3.3-2.4l0.2,0.1L75.7,78.3L75.7,78.3z M62.6,77l13,1l1.3-3
			c-0.7,0.6-1.9,1.6-3,2c-1.5,0.6-3.6,0.5-4.7,0.3c-1.4-0.2-2-1.6-1.9-4.6l0.4-6l4.7,0.4c0,0,1.1,0.2,1.6,0.4c0.5,0.3,0.8,0.8,1,1.1
			l0.2-2.8c-0.2,0.2-0.5,0.5-0.7,0.6c-0.7,0.4-1.9,0.4-2,0.4l-4.8-0.4l0.3-4.4c0.3-3,1.1-4.3,2.5-4.3l0.1,0l0.1,0
			c0.5,0,2.8,0.1,4.3,0.9c0.9,0.5,1.5,1.3,1.8,1.8l-0.2-2.5l-6.2-0.4L64,57.2c1.3,0.3,1.8,1.9,1.7,4.8L65,72.5
			C64.7,75.4,63.9,76.9,62.6,77L62.6,77z"/>
		<path class="st2" d="M103.7,69.9c-1.5,0.8-4,1.7-6.7,1.9l-0.2,3.1c-0.1,3.7,0.9,4.6,1.9,4.7l0,0.2l-7.1-0.5l0-0.2
			c1.1,0.1,2.2-0.7,2.6-4.4l0.7-10.5c0.2-3.8-0.9-4.7-1.9-4.7l0-0.2l4.4,0.3c1.3,0,6.4,0,8.1,1.7C107.9,63.6,107.6,67.8,103.7,69.9
			L103.7,69.9z M102.8,60.9c-2-1.5-3.9-0.6-4.5,0c-0.4,0.7-0.7,1.7-0.9,3.3L97,71.4c2.1-0.2,4.5-1.2,6.2-3
			C104.6,66.9,104.9,62.5,102.8,60.9L102.8,60.9z"/>
		<path class="st2" d="M98.8,80l-7.4-0.6l0-0.5l0.1,0c1.3,0.1,2.1-1.3,2.5-4.3l0.7-10.5c0.2-4.5-1.3-4.6-1.8-4.6l-0.1,0l0-0.5
			l4.5,0.3c1,0,6.4,0,8.1,1.7c1.2,1.2,1.8,2.8,1.6,4.5c-0.3,1.8-1.4,3.4-3.4,4.5c-1.3,0.7-3.9,1.6-6.7,1.9l-0.2,3
			c-0.1,3,0.5,4.5,1.8,4.6l0.1,0L98.8,80L98.8,80z M91.9,79.2l6.5,0.5c-1.3-0.3-1.8-1.9-1.7-4.8l0.2-3.2l0.1,0
			c2.8-0.2,5.4-1.2,6.7-1.9c1.8-1,3-2.5,3.2-4.3c0.2-1.6-0.3-3.1-1.5-4.3c-1.7-1.7-6.9-1.7-8-1.6l-4.1-0.3c1.3,0.3,1.9,1.9,1.7,4.8
			l-0.7,10.5C94,77.6,93.2,79.1,91.9,79.2L91.9,79.2z M96.8,71.6l0.5-7.3c0.2-1.5,0.5-2.6,0.9-3.4c0.6-0.8,2.6-1.6,4.6-0.1
			c0.9,0.7,1.4,1.8,1.5,3.3c0.1,1.7-0.3,3.5-1.1,4.4c-1.5,1.7-3.8,2.8-6.3,3.1L96.8,71.6z M100.7,60.2c-1.1-0.1-1.9,0.4-2.3,0.8
			c-0.4,0.7-0.7,1.8-0.9,3.3l-0.5,7c1.2-0.2,3.9-0.8,6-3c0.8-0.8,1.2-2.5,1.1-4.2c-0.1-1.4-0.6-2.5-1.4-3.1
			C102.1,60.5,101.4,60.2,100.7,60.2z"/>
		<path class="st2" d="M121.4,81.5l-13.4-1l0-0.2c1.1,0.1,2.2-0.7,2.6-4.4l0.7-10.5c0.2-3.8-0.9-4.7-1.9-4.7l0-0.2l6.9,0.5l6.3,0.4
			l0.3,3.2c0,0-0.6-1.6-2.1-2.3c-1.5-0.7-3.6-0.9-4.3-0.9l-0.1,0l-0.1,0c-1,0-2,0.7-2.3,4.1l-0.3,4.4l4.7,0.4c0,0,1.2,0,1.9-0.4
			c0.4-0.2,0.9-0.9,0.9-0.9l-0.3,3.6c0,0-0.5-1-1.2-1.5c-0.5-0.3-1.5-0.4-1.5-0.4l-4.6-0.3l-0.4,5.8c-0.1,3.5,0.7,4.3,1.8,4.5
			c1.3,0.1,3.2,0.2,4.7-0.3c1.5-0.5,3.4-2.4,3.4-2.4L121.4,81.5L121.4,81.5z M117.7,58.1l-1.5-3.6l1.8,0.1l0.1,3.5L117.7,58.1z"/>
		<path class="st2" d="M121.5,81.7l-13.6-1l0-0.5l0.1,0c1.3,0.1,2.1-1.3,2.5-4.3l0.7-10.5c0.2-4-1-4.5-1.8-4.6l-0.1,0l0-0.5l7,0.5
			l6.4,0.4l0.3,3.3l-0.2,0.1c0,0-0.6-1.6-2-2.3c-1.5-0.7-3.8-0.8-4.2-0.9l-0.1,0l-0.1,0c-0.8,0-1.8,0.4-2.2,4l-0.3,4.2l4.6,0.3
			c0,0,1.2,0,1.8-0.4c0.3-0.2,0.9-0.8,0.9-0.8l0.2-0.3L121,73l-0.2-0.4c0,0-0.5-1-1.1-1.4c-0.5-0.3-1.5-0.4-1.5-0.4l-4.4-0.3
			l-0.4,5.7c-0.1,3.6,0.8,4.2,1.7,4.4c1.1,0.1,3.1,0.2,4.6-0.3c1.4-0.5,3.3-2.4,3.3-2.4l0.2,0.1L121.5,81.7L121.5,81.7z M108.4,80.4
			l13,1l1.3-3c-0.7,0.6-1.9,1.6-3,2c-1.5,0.6-3.6,0.5-4.7,0.3c-1.4-0.2-2-1.6-1.9-4.6l0.4-6l4.7,0.4c0.1,0,1.1,0.2,1.6,0.4
			c0.5,0.3,0.8,0.8,1,1.1l0.2-2.8c-0.2,0.2-0.5,0.5-0.7,0.6c-0.7,0.4-1.9,0.5-1.9,0.5l-4.8-0.4l0.3-4.5c0.3-3,1.1-4.3,2.5-4.3l0.1,0
			l0.1,0c0.4,0,2.8,0.1,4.3,0.9c0.9,0.5,1.5,1.3,1.8,1.8l-0.2-2.5l-6.2-0.4l-6.6-0.5c1.3,0.3,1.8,1.9,1.7,4.8l-0.7,10.5
			C110.5,78.8,109.7,80.3,108.4,80.4L108.4,80.4z M118.2,58.3l-0.7,0l-1.6-3.9l2.2,0.2L118.2,58.3z M117.7,58l0.2,0l-0.1-3.3
			l-1.5-0.1L117.7,58L117.7,58z"/>
		<path class="st2" d="M134.5,82.5l0-0.2c0.9,0.1,1.9-0.4,1.8-2.1l-1.5-4.6c0,0-1.2-3-4-2.2l-0.3,4c-0.1,3.7,0.9,4.6,1.9,4.7l0,0.2
			l-7.1-0.5l0-0.2c1.1,0.1,2.2-0.7,2.6-4.4l0.7-10.5c0.2-3.8-0.9-4.7-1.9-4.7l0-0.2l6.3,0.5c1.7,0,4.7,0.3,6.1,1.8
			c0.7,0.8,1.4,1.4,1.2,3.3c-0.2,2.4-2.2,3.7-4.9,4.5c-0.9,0.3-1.7,0.6-2.8,1c1.9-0.1,4.2,0.3,4.9,2.8c0.3,0.8,0.5,1.6,0.7,2.5l0,0
			c0.5,2.2,1.8,4.7,3,4.8l0,0.2L134.5,82.5L134.5,82.5z M132.8,62.8c-0.7,0.5-1.2,1.6-1.5,4.1l-0.4,6c1.8-0.4,3.4-1,5.3-2.4
			c2-1.4,2.4-5.4,0.3-6.9C135.2,62.5,133.7,62.6,132.8,62.8L132.8,62.8z"/>
		<path class="st2" d="M132.6,82.5l-7.4-0.6l0-0.5l0.1,0c1.3,0.1,2.1-1.3,2.4-4.3l0.7-10.5c0.2-4.5-1.3-4.6-1.8-4.6l-0.1,0l0-0.5
			l6.4,0.5c1.7,0,4.8,0.3,6.2,1.8l0.1,0.1c0.7,0.8,1.3,1.5,1.2,3.3c-0.2,2.1-1.7,3.6-5,4.6c-0.5,0.1-0.9,0.3-1.3,0.5
			c-0.2,0.1-0.5,0.2-0.7,0.3c1.5,0.1,3.5,0.6,4.2,2.9c0.2,0.8,0.5,1.6,0.7,2.4l0,0l0,0c0.5,2.2,1.8,4.7,2.9,4.7l0.1,0l0,0.5l-7-0.5
			l0-0.5l0.1,0c0.4,0,0.9,0,1.2-0.4c0.3-0.3,0.5-0.8,0.4-1.5l-1.5-4.6c0-0.1-1.2-2.8-3.7-2.2l-0.3,3.9c-0.1,3,0.5,4.5,1.8,4.6l0.1,0
			L132.6,82.5L132.6,82.5z M125.7,81.7l6.5,0.5c-1.3-0.3-1.8-1.9-1.7-4.8l0.3-4.1l0.1,0c2.8-0.8,4.1,2.3,4.1,2.3l1.5,4.6
			c0,0.8-0.1,1.4-0.5,1.7c-0.3,0.3-0.7,0.4-1.1,0.5l6.2,0.5c-1.2-0.4-2.4-3-2.8-4.8l0-0.1c-0.2-0.8-0.4-1.6-0.7-2.4
			c-0.8-2.5-3.3-2.8-4.8-2.7l0-0.3c0.6-0.2,1-0.3,1.5-0.5c0.5-0.2,0.9-0.3,1.3-0.5c3.1-0.9,4.7-2.3,4.8-4.4c0.1-1.8-0.4-2.4-1.1-3.1
			l-0.1-0.1c-1.4-1.4-4.4-1.7-6-1.7l-6-0.4c1.3,0.3,1.9,1.9,1.7,4.8l-0.7,10.5C127.8,80.1,127.1,81.6,125.7,81.7L125.7,81.7z
			 M130.8,73l0.4-6.2c0.2-2.2,0.7-3.6,1.5-4.2l0.1,0c1.5-0.3,2.8,0,3.8,0.8c0.9,0.7,1.5,1.9,1.4,3.3c0,1.6-0.7,3.1-1.7,3.8
			c-1.6,1.2-3.3,1.9-5.3,2.4L130.8,73z M132.9,62.9c-0.7,0.5-1.2,1.9-1.4,3.9l-0.4,5.8c1.9-0.4,3.5-1.2,5.1-2.3
			c1-0.7,1.6-2.1,1.6-3.6c0-1.3-0.5-2.4-1.3-3.1C135.5,62.9,134.3,62.6,132.9,62.9L132.9,62.9z"/>
		<path class="st2" d="M157,84.2l-13.4-1l0-0.2c1.1,0.1,2.2-0.7,2.6-4.4l0.7-10.5c0.2-3.8-0.9-4.7-1.9-4.7l0-0.2l6.9,0.5l6.3,0.4
			l0.3,3.2c0,0-0.6-1.6-2.1-2.3c-1.5-0.7-3.6-0.9-4.3-0.9l-0.1,0l-0.1,0c-1,0-2,0.7-2.3,4.1l-0.3,4.3l4.7,0.4c0,0,1.2,0,1.9-0.4
			c0.4-0.2,0.9-0.9,0.9-0.9l-0.3,3.6c0,0-0.5-1-1.2-1.5c-0.5-0.3-1.5-0.4-1.5-0.4l-4.6-0.3l-0.4,5.8c-0.1,3.5,0.7,4.3,1.8,4.5
			c1.3,0.1,3.2,0.2,4.7-0.3c1.5-0.5,3.4-2.4,3.4-2.4L157,84.2L157,84.2z"/>
		<path class="st2" d="M157.1,84.4l-13.6-1l0-0.5l0.1,0c1.3,0.1,2.1-1.3,2.5-4.3l0.7-10.5c0.2-4-1-4.5-1.8-4.6l-0.1,0l0-0.5l7,0.5
			l6.4,0.4l0.3,3.3l-0.2,0.1c0,0-0.6-1.6-2-2.3c-1.5-0.7-3.8-0.8-4.2-0.9l-0.1,0l-0.1,0c-0.8,0-1.8,0.4-2.2,4l-0.3,4.2l4.6,0.3
			c0,0,1.2,0,1.8-0.4c0.3-0.2,0.9-0.8,0.9-0.8l0.2-0.3l-0.3,4.4l-0.2-0.4c0,0-0.5-1-1.1-1.4c-0.5-0.3-1.5-0.4-1.5-0.4l-4.4-0.3
			l-0.4,5.7c-0.1,3.6,0.8,4.2,1.7,4.4c1.1,0.1,3.1,0.2,4.6-0.3c1.4-0.5,3.3-2.4,3.3-2.4l0.2,0.1L157.1,84.4L157.1,84.4z M144,83.1
			l13,1l1.3-3c-0.7,0.6-1.9,1.6-3,2c-1.5,0.6-3.6,0.5-4.7,0.3c-1.4-0.2-2-1.6-1.9-4.6l0.4-6l4.7,0.4c0.1,0,1.1,0.2,1.6,0.4
			c0.5,0.3,0.8,0.8,1,1.1l0.2-2.8c-0.2,0.2-0.5,0.5-0.7,0.6c-0.7,0.4-1.9,0.4-1.9,0.4l-4.8-0.4l0.3-4.4c0.3-3,1.1-4.3,2.5-4.3l0.1,0
			l0.1,0c0.5,0,2.8,0.1,4.3,0.9c0.9,0.5,1.5,1.3,1.8,1.8l-0.2-2.5l-6.2-0.4l-6.6-0.5c1.3,0.3,1.8,1.9,1.7,4.8l-0.7,10.5
			C146.1,81.5,145.3,83,144,83.1L144,83.1z"/>
		<path class="st2" d="M59.4,104.8l-13.4-1l0-0.2c1.1,0.1,2.2-0.7,2.6-4.4l0.7-10.5c0.2-3.8-0.9-4.7-1.9-4.7l0-0.2l6.9,0.5l6.3,0.4
			l0.3,3.2c0,0-0.6-1.6-2.1-2.3c-1.5-0.7-3.6-0.9-4.3-0.9l-0.1,0l-0.1,0c-1,0-2,0.7-2.3,4.1l-0.3,4.3l4.7,0.4c0,0,1.2,0,1.9-0.4
			c0.4-0.2,0.9-0.9,0.9-0.9l-0.3,3.6c0,0-0.5-1-1.2-1.5c-0.5-0.3-1.5-0.4-1.5-0.4l-4.6-0.3l-0.4,5.8c-0.1,3.5,0.7,4.3,1.8,4.5
			c1.3,0.1,3.2,0.2,4.7-0.3c1.5-0.5,3.4-2.4,3.4-2.4L59.4,104.8L59.4,104.8z"/>
		<path class="st2" d="M59.4,104.9l-13.6-1l0-0.5l0.1,0c1.3,0.1,2.1-1.3,2.5-4.3l0.7-10.5c0.2-4-1-4.5-1.8-4.6l-0.1,0l0-0.5l7,0.5
			l6.4,0.4l0.3,3.3l-0.2,0.1c0,0-0.6-1.6-2-2.3c-1.5-0.7-3.8-0.8-4.2-0.9l-0.1,0l-0.1,0c-0.8,0-1.8,0.4-2.2,4L51.7,93l4.6,0.3
			c0,0,1.2,0,1.8-0.4c0.3-0.2,0.9-0.8,0.9-0.8l0.2-0.3l-0.3,4.4l-0.2-0.4c0,0-0.5-1-1.1-1.4c-0.5-0.3-1.5-0.4-1.5-0.4l-4.4-0.3
			l-0.4,5.7c-0.1,3.6,0.8,4.2,1.7,4.4c1.1,0.1,3.1,0.2,4.6-0.3c1.4-0.5,3.3-2.4,3.3-2.4l0.2,0.1L59.4,104.9L59.4,104.9z M46.3,103.7
			l13,1l1.3-3c-0.7,0.6-1.9,1.6-3,2c-1.5,0.6-3.6,0.5-4.7,0.3c-1.4-0.2-2-1.6-1.9-4.6l0.4-6l4.7,0.4c0,0,1.1,0.2,1.6,0.4
			c0.5,0.3,0.8,0.8,1,1.1l0.2-2.8c-0.2,0.2-0.5,0.5-0.7,0.6c-0.7,0.4-1.9,0.4-1.9,0.4l-4.8-0.4l0.3-4.4c0.3-3,1.1-4.3,2.5-4.3l0.1,0
			l0.1,0c0.5,0,2.8,0.1,4.3,0.9c0.9,0.5,1.5,1.3,1.8,1.8l-0.2-2.5l-6.2-0.4l-6.6-0.5c1.3,0.3,1.8,1.9,1.7,4.8l-0.7,10.5
			C48.4,102.1,47.6,103.6,46.3,103.7L46.3,103.7z"/>
		<path class="st2" d="M67.1,88.2l-1,13.9c-0.1,1.4,0.6,3,1.9,3.1l0,0.2l-4.6-0.3l0-0.2c1.2,0.1,2.1-1.3,2.3-2.6l1.1-14.9l-0.5-1.1
			c-0.5-0.7-0.8-1-1.4-1.1l0-0.2l3.7,0.3l8.6,17.7l1-14c0-1.3-0.7-2.8-1.9-2.9l0-0.2l4.6,0.3l0,0.2c-1.3-0.1-2.2,1.4-2.3,2.8
			l-1,14.5l0,0.2c0.4,1,1,2,1.9,2.1l0,0.2l-3.9-0.3L67.1,88.2L67.1,88.2z"/>
		<path class="st2" d="M79.6,106.5l-4.1-0.3l0-0.1l-8.2-17.4l-1,13.5c-0.1,0.9,0.2,1.8,0.7,2.4c0.3,0.4,0.7,0.6,1.1,0.6l0.1,0l0,0.5
			l-4.8-0.4l0-0.5l0.1,0c1.1,0.1,2-1.2,2.1-2.5l1-14.9l-0.5-1.1c-0.4-0.7-0.8-1-1.3-1l-0.1,0l0-0.5l3.9,0.3l0,0.1l8.4,17.3L78,89
			c0-1.3-0.7-2.7-1.8-2.8l-0.1,0l0-0.5l4.9,0.4l-0.1,0.5l-0.1,0c-1.1-0.1-2.1,1.3-2.1,2.7l-1,14.5l0,0.2c0.4,1,0.9,1.9,1.8,2l0.1,0
			L79.6,106.5L79.6,106.5z M75.6,105.9l3.6,0.3c-0.8-0.2-1.3-1.2-1.7-2.1l-0.1-0.3l1-14.5c0.1-1.4,1-2.8,2.1-2.9l-4-0.3
			c1.1,0.3,1.7,1.7,1.7,3l-1,14.4l-8.8-18.1l-3.2-0.2c0.4,0.1,0.7,0.5,1,1l0.6,1.2l-1.1,15c-0.1,1.3-1,2.6-2.1,2.7l4,0.3
			c-0.4-0.1-0.7-0.3-1-0.7c-0.5-0.6-0.8-1.6-0.7-2.6l1-14.4L75.6,105.9L75.6,105.9z"/>
		<path class="st2" d="M102.3,88.3c-1,0-2,0.7-2.3,4.1l-0.3,4.3l4.7,0.4c0,0,1.2,0,1.9-0.4c0.4-0.2,0.9-0.9,0.9-0.9l-0.3,3.6
			c0,0-0.5-1-1.2-1.5c-0.5-0.3-1.5-0.4-1.5-0.4l-4.6-0.3l-0.4,5.8c-0.1,3.7,0.9,4.6,1.9,4.7l0,0.2l-7.1-0.5l0-0.2
			c1.1,0.1,2.2-0.7,2.6-4.4l0.7-10.5c0.2-3.8-0.8-4.7-1.9-4.7l0-0.2l6.9,0.5l6.3,0.4l0.3,3.2c0,0-0.6-1.6-2.1-2.3
			c-1.5-0.7-3.7-0.9-4.3-0.9l-0.1,0L102.3,88.3L102.3,88.3z"/>
		<path class="st2" d="M101.2,108.1l-7.4-0.6l0-0.5l0.1,0c0.9,0.1,2-0.3,2.5-4.3l0.7-10.5c0.2-4-1-4.5-1.8-4.6l-0.1,0l0-0.5l7,0.5
			l6.4,0.4l0.3,3.3l-0.2,0.1c0,0-0.6-1.6-2-2.3c-1.5-0.7-3.8-0.8-4.2-0.9l-0.1,0l-0.1,0c-0.8,0-1.8,0.4-2.2,4l-0.3,4.2l4.6,0.3
			c0,0,1.2,0,1.8-0.4c0.3-0.2,0.9-0.8,0.9-0.8l0.2-0.3l-0.3,4.4l-0.2-0.4c0,0-0.5-1-1.1-1.4c-0.5-0.3-1.5-0.4-1.5-0.4l-4.4-0.3
			l-0.4,5.7c-0.1,3,0.5,4.5,1.8,4.6l0.1,0L101.2,108.1L101.2,108.1z M94.3,107.3l6.5,0.5c-1.3-0.3-1.8-1.9-1.7-4.8l0.4-6l4.7,0.4
			c0.1,0,1.1,0.2,1.6,0.4c0.5,0.3,0.8,0.8,1,1.1l0.2-2.8c-0.2,0.2-0.5,0.5-0.7,0.6c-0.7,0.4-1.9,0.4-2,0.4l-4.8-0.4l0.3-4.4
			c0.3-3,1.1-4.3,2.5-4.3l0.1,0l0.1,0c0.4,0,2.8,0.1,4.3,0.9c0.9,0.5,1.5,1.3,1.8,1.8l-0.2-2.5l-6.2-0.4l-6.6-0.5
			c1.3,0.3,1.8,1.9,1.7,4.8l-0.7,10.5C96.4,105.8,95.7,107.2,94.3,107.3L94.3,107.3z"/>
		<path class="st2" d="M117.3,108.9l0,0.2l-7.1-0.5l0-0.2c1.1,0.1,2.2-0.7,2.6-4.4l0.7-10.5c0.2-3.8-0.8-4.7-1.9-4.7l0-0.2l7.1,0.5
			l0,0.2c-1.1-0.1-2.2,0.6-2.6,4.4l-0.7,10.6C115.3,107.9,116.2,108.8,117.3,108.9z"/>
		<path class="st2" d="M117.4,109.3l-7.4-0.6l0-0.5l0.1,0c0.9,0.1,2-0.3,2.5-4.3l0.7-10.5c0.2-4-1-4.5-1.8-4.6l-0.1,0l0-0.5l7.4,0.6
			l0,0.5l-0.1,0c-0.8-0.1-2,0.3-2.4,4.2l-0.7,10.6c-0.1,3,0.5,4.5,1.8,4.6l0.1,0L117.4,109.3z M110.6,108.5l6.5,0.5
			c-1.3-0.3-1.8-1.9-1.7-4.8l0.7-10.6c0.3-2.9,1.1-4.4,2.4-4.5l-6.5-0.5c1.3,0.3,1.8,1.9,1.7,4.8l-0.7,10.5
			C112.6,106.9,111.9,108.4,110.6,108.5L110.6,108.5z"/>
		<path class="st2" d="M133.2,110.3l-13.4-1l0-0.2c1.1,0.1,2.2-0.7,2.6-4.4l0.7-10.5c0.2-3.8-0.9-4.7-1.9-4.7l0-0.2l7.1,0.5l0,0.2
			c-1.1-0.1-2.2,0.6-2.6,4.3l-0.7,10.6c-0.1,3.5,0.7,4.3,1.8,4.5c1.3,0.1,3.2,0.2,4.7-0.3c1.5-0.5,3.4-2.4,3.4-2.4L133.2,110.3
			L133.2,110.3z"/>
		<path class="st2" d="M133.3,110.5l-13.6-1l0-0.5l0.1,0c1.3,0.1,2.1-1.3,2.5-4.3l0.7-10.5c0.2-4-1-4.5-1.8-4.6l-0.1,0l0-0.5
			l7.4,0.6l0,0.5l-0.1,0c-0.8-0.1-2,0.3-2.4,4.2l-0.8,10.6c-0.1,3.6,0.8,4.2,1.7,4.4c1.1,0.1,3.1,0.2,4.6-0.3
			c1.4-0.5,3.3-2.4,3.3-2.4l0.2,0.2L133.3,110.5L133.3,110.5z M120.2,109.2l13,1l1.3-3c-0.7,0.6-1.9,1.6-3,2
			c-1.5,0.6-3.6,0.5-4.7,0.3c-1.4-0.2-2-1.6-1.9-4.6l0.8-10.6c0.3-2.9,1.1-4.3,2.4-4.4l-6.5-0.5c1.3,0.3,1.8,1.9,1.7,4.8l-0.7,10.5
			C122.3,107.6,121.5,109.1,120.2,109.2L120.2,109.2z"/>
		<path class="st2" d="M151,106.9c-1,3.5-6.7,5.9-12.2,2.8c-0.7-0.4-0.7-0.3-1.1-0.3c0.1-1.7,0.3-3.5,0.5-5.2l0.3,0
			c0,0.4,0.3,4,2.7,5.3c5.1,2.7,7.7,0,7.9-2.4c0.1-1.1-0.3-3.6-5.4-6c-5.8-2.6-5.2-5.6-5.1-6c0.7-4.3,5.8-4.5,8.2-4
			c1.4,0.3,3,1.8,4.2,1.5c-0.5,1.7-0.9,3.5-1.4,5.2l-0.2,0c-0.3-2.4-0.4-4.6-2.1-5.7c-2.2-1.6-5.8-0.4-6.2,1.5
			c-0.2,1.3-0.4,2.7,5.2,5.8C151.2,102.1,151.8,104.1,151,106.9L151,106.9z"/>
		<path class="st2" d="M143.4,111.3c-1.6-0.1-3.1-0.6-4.6-1.5c-0.6-0.3-0.6-0.3-0.9-0.3l-0.3,0l0-0.2c0-0.9,0.1-1.9,0.2-2.9
			c0.1-0.8,0.2-1.6,0.2-2.3l0-0.1l0.5,0l0,0.1c0,0.8,0.5,4,2.6,5.2c3,1.6,4.8,1.2,5.9,0.6c1.1-0.6,1.8-1.7,1.9-2.9
			c0.1-1-0.2-3.5-5.4-5.8c-5.5-2.5-5.3-5.3-5.2-6.1c0.2-1.3,0.9-2.4,2-3.1c2.1-1.4,5-1.2,6.4-0.9c0.6,0.1,1.2,0.5,1.8,0.8
			c0.8,0.4,1.6,0.9,2.3,0.7l0.2-0.1l-0.1,0.2c-0.3,1-0.5,1.9-0.7,2.9c-0.2,0.8-0.4,1.6-0.6,2.4l0,0.1l-0.5,0l0-0.4
			c-0.2-2.2-0.5-4.3-2-5.4c-1.4-1-3.1-0.8-4.2-0.3c-0.9,0.4-1.6,1-1.7,1.7c-0.2,1.2-0.5,2.6,5.1,5.6c5.1,2.7,5.6,4.8,4.8,7.6
			c-0.4,1.5-1.7,2.9-3.6,3.7C146.3,111.2,144.8,111.4,143.4,111.3L143.4,111.3z M138.1,109.2c0.2,0,0.4,0.1,0.8,0.3
			c2.8,1.6,6,1.9,8.6,0.8c1.8-0.7,3-2,3.4-3.5c0.8-2.7,0.2-4.7-4.7-7.3c-5.8-3.1-5.5-4.6-5.3-5.9c0.1-0.8,0.8-1.5,1.9-1.9
			c1.2-0.5,3-0.7,4.5,0.3c1.6,1.1,1.9,3.3,2.1,5.6l0,0.1l0,0c0.2-0.8,0.4-1.5,0.6-2.3c0.2-0.9,0.5-1.8,0.7-2.7
			c-0.7,0.1-1.4-0.3-2.2-0.7c-0.6-0.3-1.2-0.6-1.8-0.8c-1.4-0.3-4.2-0.5-6.2,0.9c-1,0.7-1.6,1.7-1.8,3c-0.2,0.8-0.3,3.5,5,5.9
			c5.4,2.4,5.6,5.1,5.5,6.1c-0.1,1.3-0.9,2.5-2,3.1c-1.1,0.6-3,1-6.1-0.6c-2.3-1.2-2.7-4.6-2.7-5.3l0,0c-0.1,0.7-0.1,1.5-0.2,2.2
			c-0.1,0.9-0.2,1.9-0.2,2.7C138,109.2,138.1,109.2,138.1,109.2L138.1,109.2z"/>
		<path class="st2" d="M60.5,38.2l-1.6-4.9l1-0.3l1.6,4.9c0.4,1.3,1.5,1.8,2.9,1.3c1.4-0.5,2-1.6,1.6-2.9l-1.6-4.9l0.9-0.3l1.6,4.9
			c0.6,1.8-0.2,3.4-2.2,4.1C62.7,40.7,61.1,40,60.5,38.2z"/>
		<path class="st2" d="M68.5,30.1l1.6-0.4l5.7,5.6l0,0l-1.5-6.6l0.9-0.2l1.8,7.9l-1.2,0.3l-6.2-6.1l0,0l1.6,7.2l-0.9,0.2L68.5,30.1
			L68.5,30.1z"/>
		<path class="st2" d="M78.7,28l5.2-0.7l0.1,0.9l-4.2,0.6l0.4,2.7l3.4-0.5l0.1,0.8l-3.4,0.5l0.4,2.7l4.3-0.6l0.1,0.9L79.8,36
			L78.7,28L78.7,28z"/>
		<path class="st2" d="M90.7,26.6l1,0l0.1,3.5l4.9-0.1l-0.1-3.5l1,0l0.2,8.1l-1,0l-0.1-3.8l-4.9,0.1l0.1,3.8l-1,0L90.7,26.6
			L90.7,26.6z"/>
		<path class="st2" d="M100.9,26.6l1,0l-0.3,8.1l-1,0L100.9,26.6z"/>
		<path class="st2" d="M104.3,32.1l0.9,0.1c-0.1,1.2,0.4,2.1,2.1,2.2c1.8,0.2,2.4-0.5,2.5-1.3c0-0.5-0.1-0.8-0.5-1
			c-0.4-0.2-1.3-0.4-2-0.6c-0.8-0.2-1.7-0.5-2.1-0.8c-0.4-0.3-0.7-0.9-0.6-1.7c0.1-1.4,1.5-2.3,3.4-2.1c2.2,0.2,3,1.4,2.8,3.2
			l-0.9-0.1c0.1-1.4-0.6-2.1-1.9-2.2c-1.3-0.1-2.3,0.4-2.3,1.3c0,0.5,0.1,0.8,0.4,1c0.4,0.2,1.3,0.5,2,0.6c0.8,0.2,1.6,0.4,2.1,0.7
			c0.5,0.3,0.8,0.9,0.7,1.7c-0.1,1.2-1,2.4-3.6,2.1C104.7,35,104.2,33.6,104.3,32.1L104.3,32.1z"/>
		<path class="st2" d="M115.7,29l-2.6-0.5l0.1-0.9l6.2,1.1l-0.1,0.9l-2.6-0.5l-1.2,7.1l-1-0.2L115.7,29z"/>
		<path class="st2" d="M120.2,33c0.6-2.5,2.7-3.6,4.9-3c2.2,0.6,3.5,2.6,2.9,5c-0.6,2.5-2.7,3.7-4.9,3.1
			C120.9,37.5,119.6,35.5,120.2,33L120.2,33z M127,34.7c0.5-1.9-0.6-3.5-2.2-3.9c-1.6-0.4-3.2,0.4-3.7,2.4c-0.5,2,0.6,3.5,2.1,3.9
			C124.9,37.6,126.5,36.7,127,34.7L127,34.7z"/>
		<path class="st2" d="M131.7,32l1,0.3l-2.4,7.7l-1-0.3L131.7,32z"/>
		<path class="st2" d="M135.8,33.4l3.1,1.3c1.9,0.8,2.5,2,2,3.3c-0.4,1-1.1,1.5-2.1,1.2l0,0c1,0.6,1.1,1.4,0.7,2.3l-0.7,1.8l-1-0.4
			l0.7-1.8c0.3-0.8,0.2-1.5-1.1-2l-2.3-1l-1.2,3.2l-0.9-0.4L135.8,33.4L135.8,33.4z M137.5,38.4c1.4,0.6,2.1,0.2,2.4-0.7
			c0.3-0.8-0.1-1.6-1.3-2.1l-2.1-0.9l-1.1,2.8L137.5,38.4L137.5,38.4z"/>
		<path class="st2" d="M144.5,37.1l4.7,2.4l-0.4,0.8l-3.8-2l-1.2,2.4l3.1,1.6l-0.3,0.7l-3.1-1.6l-1.2,2.5l3.9,2l-0.4,0.8l-4.8-2.5
			L144.5,37.1L144.5,37.1z"/>
		<path class="st2" d="M60.9,125.6l2.6,1.3c2.2,1.1,3,3.1,1.9,5.4c-1.1,2.3-3,3.1-5.1,2.1l-2.9-1.4L60.9,125.6L60.9,125.6z
			 M60.8,133.5c1.5,0.7,2.9,0.1,3.8-1.7c0.8-1.8,0.3-3.3-1.4-4.1l-1.7-0.8l-2.6,5.7L60.8,133.5L60.8,133.5z"/>
		<path class="st2" d="M69.2,129.5l5,1.8l-0.3,0.9l-4-1.5l-0.9,2.6l3.3,1.2l-0.3,0.7l-3.3-1.2l-0.9,2.6l4.1,1.5l-0.3,0.9l-5.1-1.9
			L69.2,129.5L69.2,129.5z"/>
		<path class="st2" d="M76.3,132l3.1,0.8c1.9,0.5,2.7,1.8,2.3,3.5c-0.4,1.7-1.7,2.3-3.4,1.9l-2.3-0.6l-0.7,2.6l-1-0.3L76.3,132
			L76.3,132z M78.3,137.3c1.2,0.3,2-0.1,2.3-1.3c0.3-1.2-0.3-2-1.6-2.4l-2.1-0.6l-0.9,3.6L78.3,137.3L78.3,137.3z"/>
		<path class="st2" d="M83.6,139.1l0.8-5.1l1,0.2l-0.8,5.1c-0.2,1.3,0.5,2.3,2,2.6c1.5,0.3,2.5-0.4,2.7-1.7l0.8-5.1l0.9,0.2
			l-0.8,5.1c-0.3,1.8-1.8,2.9-3.8,2.5C84.4,142.4,83.3,141,83.6,139.1L83.6,139.1z"/>
		<path class="st2" d="M93.7,135.5l1,0.1l-0.8,8.1l-1-0.1L93.7,135.5z"/>
		<path class="st2" d="M96.9,141.2l0.9,0c-0.1,1.2,0.5,2,2.2,2.1c1.8,0.1,2.4-0.6,2.4-1.4c0-0.5-0.2-0.8-0.6-1
			c-0.4-0.2-1.3-0.3-2-0.5c-0.8-0.1-1.7-0.4-2.1-0.7c-0.4-0.3-0.8-0.9-0.7-1.6c0.1-1.4,1.4-2.4,3.3-2.3c2.2,0.1,3.1,1.2,3,3.1
			l-0.9,0c0.1-1.4-0.7-2.1-2.1-2.1c-1.3-0.1-2.2,0.5-2.3,1.4c0,0.5,0.2,0.8,0.5,1c0.4,0.2,1.3,0.4,2,0.5c0.8,0.1,1.6,0.3,2.1,0.6
			c0.5,0.3,0.8,0.9,0.8,1.6c-0.1,1.2-0.9,2.4-3.5,2.3C97.5,144.2,96.8,142.7,96.9,141.2L96.9,141.2z"/>
		<path class="st2" d="M110.9,138.8l-1.8,0.1l0-0.8l1.1-0.1c0.7-0.1,0.8-0.2,0.7-2.2l0.9,0l0.5,8.2l-1,0.1L110.9,138.8L110.9,138.8z
			"/>
		<path class="st2" d="M115.1,141.7c0-0.1,0-0.3,0-0.4l0.9-0.1c0,0.1,0,0.3,0,0.3c0.1,0.8,0.9,1.3,2.1,1.2c1.4-0.2,2-1.4,1.8-3.5
			c0-0.2-0.1-0.5-0.1-0.8l0,0c0,1-0.8,1.8-2.1,2c-1.8,0.2-3-0.6-3.1-2c-0.2-1.6,0.8-2.8,2.7-3.1c1.9-0.3,3.3,0.7,3.7,3.6
			c0.3,2.8-0.6,4.4-2.6,4.6C116.5,143.8,115.3,143,115.1,141.7L115.1,141.7z M119.5,137.4c-0.2-0.9-1-1.5-2.2-1.3
			c-1.3,0.2-1.9,1-1.8,2c0.1,1,0.9,1.5,2.1,1.3C118.9,139.3,119.6,138.5,119.5,137.4z"/>
		<path class="st2" d="M125.5,139c1.8-1.4,2-1.9,1.8-3c-0.2-0.9-1-1.5-2.1-1.2c-1.2,0.3-1.7,1.2-1.5,2.4c0.1,0.4,0.2,0.7,0.3,0.9
			l-0.9,0.2c-0.1-0.2-0.2-0.5-0.3-1c-0.4-1.8,0.4-3.1,2.2-3.5c1.7-0.4,2.9,0.4,3.2,1.9c0.2,1.2,0,2.1-2.1,3.7
			c-1.5,1.2-1.6,1.4-1.6,2l4.7-1l0.2,0.9l-5.7,1.3C123.4,141,123.6,140.4,125.5,139L125.5,139z"/>
		<path class="st2" d="M133.4,136.9c1.6-1.5,1.8-2.1,1.5-3.1c-0.3-0.9-1.1-1.4-2.2-1c-1.2,0.4-1.6,1.4-1.3,2.6
			c0.1,0.4,0.3,0.7,0.3,0.9l-0.9,0.3c-0.1-0.2-0.2-0.5-0.4-0.9c-0.5-1.7,0.2-3.1,1.9-3.7c1.6-0.5,2.9,0.2,3.4,1.6
			c0.4,1.2,0.2,2.1-1.7,3.9c-1.4,1.3-1.5,1.6-1.4,2.1l4.6-1.5l0.3,0.9l-5.6,1.8C131.6,139,131.7,138.5,133.4,136.9L133.4,136.9z"/>
		<path class="st2" d="M102.4,122.6c-0.1,0.4-0.4,0.6-0.9,0.6c-0.7,0.1-1.4-0.1-2.1-0.1c-0.2,0-0.4,0-0.7,0c-0.1,0-0.2,0-0.2,0.1
			c0,0.1,0.1,0.1,0.1,0.2c0.4,0.3,0.8,0.6,1.2,1c0.3,0.2,0.6,0.5,0.9,0.7c0.3,0.3,0.4,0.7,0.2,1c-0.2,0.3-0.6,0.6-0.9,0.5
			c-0.4-0.1-0.7-0.2-0.8-0.6c-0.2-0.7-0.4-1.4-0.6-2.1c-0.1-0.2-0.1-0.5-0.2-0.7c-0.4,0.7-0.8,1.5-1.1,2.2c-0.1,0.2-0.1,0.3-0.2,0.4
			c-0.2,0.4-0.7,0.5-1.2,0.4c-0.4-0.1-0.6-0.6-0.6-1c0.1-0.3,0.3-0.5,0.5-0.7c0.7-0.4,1.4-0.8,2.1-1.3c0.1-0.1,0.2-0.1,0.2-0.2
			c0-0.1-0.2-0.1-0.3-0.1c-0.7-0.1-1.5-0.1-2.2-0.2c-0.3,0-0.6-0.1-0.9-0.3c-0.3-0.4-0.4-0.9-0.1-1.2c0.3-0.3,0.8-0.4,1.2-0.2
			c0.4,0.3,0.7,0.5,1.1,0.8c0.4,0.3,0.7,0.6,1.1,0.9c0,0,0.1,0.1,0.2,0.1c0.1-0.2,0-0.5-0.1-0.7c-0.2-0.7-0.4-1.4-0.5-2.2
			c-0.1-0.3,0.1-0.7,0.4-0.9c0.3-0.2,0.7-0.2,1,0c0.3,0.2,0.5,0.5,0.4,0.9c-0.1,0.5-0.3,0.9-0.5,1.4c-0.2,0.5-0.4,1-0.5,1.5
			c0.3,0,0.5-0.2,0.7-0.3c0.6-0.3,1.2-0.7,1.8-1.1c0.4-0.2,0.8-0.2,1.1,0C102.4,121.8,102.5,122.2,102.4,122.6L102.4,122.6z"/>
		<path class="st2" d="M100,126.8C100,126.8,100,126.8,100,126.8c-0.5-0.1-0.8-0.3-1-0.7c-0.1-0.4-0.2-0.8-0.3-1.1
			c-0.1-0.3-0.2-0.6-0.3-1c0-0.1-0.1-0.3-0.1-0.4c-0.4,0.7-0.7,1.4-1,2c-0.1,0.2-0.1,0.3-0.2,0.5c-0.3,0.5-0.8,0.6-1.3,0.4
			c-0.4-0.1-0.7-0.6-0.7-1.1c0.1-0.3,0.2-0.6,0.6-0.8l0.5-0.3c0.5-0.3,1-0.6,1.5-1c0,0,0.1,0,0.1,0c0,0,0,0,0.1,0c0,0-0.1,0-0.1,0
			l-0.1,0c-0.3,0-0.6,0-0.9-0.1c-0.5,0-0.9-0.1-1.4-0.1c-0.3,0-0.7-0.1-1-0.4c-0.4-0.4-0.4-1-0.1-1.4c0.3-0.4,1-0.5,1.4-0.2
			c0.3,0.2,0.5,0.4,0.8,0.6c0.1,0.1,0.2,0.1,0.3,0.2l0.4,0.3c0.2,0.2,0.4,0.4,0.7,0.5c0-0.1,0-0.3-0.1-0.4c-0.2-0.7-0.4-1.5-0.5-2.2
			c-0.1-0.4,0.1-0.8,0.5-1c0.4-0.2,0.8-0.2,1.1,0.1c0.4,0.2,0.5,0.6,0.4,1c-0.1,0.3-0.2,0.6-0.3,0.9c-0.1,0.2-0.1,0.3-0.2,0.5
			s-0.1,0.3-0.2,0.5c-0.1,0.3-0.2,0.5-0.3,0.8c0.1,0,0.2-0.1,0.3-0.2c0.1,0,0.1-0.1,0.1-0.1c0.3-0.2,0.7-0.4,1-0.6
			c0.3-0.2,0.5-0.3,0.8-0.5c0.4-0.2,0.9-0.2,1.3,0c0.3,0.2,0.4,0.6,0.4,0.9l0,0l-0.1,0.2c-0.2,0.4-0.5,0.7-1,0.7
			c-0.5,0-0.9,0-1.4-0.1c-0.2,0-0.5,0-0.7-0.1c-0.2,0-0.4,0-0.6,0c0,0,0,0,0,0h0c0.2,0.1,0.3,0.3,0.5,0.4c0.2,0.2,0.5,0.4,0.7,0.6
			l0.1,0.1c0.3,0.2,0.5,0.4,0.8,0.7c0.3,0.3,0.4,0.8,0.2,1.2C100.9,126.6,100.4,126.8,100,126.8L100,126.8z M98.6,123.5
			c0,0.1,0.1,0.3,0.1,0.4c0.1,0.3,0.2,0.6,0.3,0.9c0.1,0.4,0.2,0.8,0.3,1.1c0.1,0.3,0.3,0.5,0.7,0.6c0.3,0,0.7-0.2,0.8-0.4
			c0.1-0.3,0.1-0.6-0.2-0.9c-0.2-0.2-0.5-0.5-0.8-0.7l-0.1-0.1c-0.2-0.2-0.5-0.4-0.7-0.6C98.9,123.8,98.8,123.6,98.6,123.5z
			 M98.2,123.3c0,0-0.1,0.1-0.1,0.1c0,0,0,0-0.1,0c-0.5,0.3-1,0.6-1.5,1l-0.5,0.3c-0.3,0.2-0.4,0.4-0.5,0.6
			c-0.1,0.3,0.2,0.7,0.5,0.8c0.4,0.1,0.8,0,1-0.3c0.1-0.1,0.1-0.3,0.2-0.4C97.4,124.8,97.8,124.1,98.2,123.3z M98.2,123
			c0,0,0,0.1,0,0.1c0,0,0,0.1,0,0.1c0,0,0,0,0,0l0-0.1L98.2,123L98.2,123L98.2,123C98.3,123,98.2,123,98.2,123L98.2,123z M98.5,123
			L98.5,123C98.5,123.1,98.5,123,98.5,123C98.5,123,98.5,123,98.5,123L98.5,123z M101.6,121.5c-0.2,0-0.4,0-0.6,0.1
			c-0.3,0.2-0.5,0.3-0.8,0.5c-0.3,0.2-0.7,0.4-1,0.6c0,0-0.1,0.1-0.1,0.1c-0.1,0.1-0.2,0.1-0.3,0.2c0.2,0,0.5,0,0.7,0
			c0.2,0,0.5,0,0.7,0.1c0.4,0,0.9,0.1,1.3,0.1c0.3,0,0.6-0.2,0.7-0.5l0-0.1c0.1-0.3,0-0.6-0.3-0.8
			C101.9,121.6,101.7,121.6,101.6,121.5z M95.4,121.1c-0.2,0-0.5,0.1-0.7,0.3c-0.3,0.3-0.2,0.7,0.1,1c0.2,0.2,0.5,0.3,0.8,0.3
			c0.5,0,0.9,0.1,1.4,0.1c0.3,0,0.6,0,0.9,0.1l0,0c0,0,0,0,0.1,0c-0.2-0.2-0.4-0.4-0.7-0.5l-0.4-0.3c-0.1-0.1-0.2-0.1-0.3-0.2
			c-0.3-0.2-0.5-0.4-0.8-0.6C95.7,121.1,95.6,121.1,95.4,121.1L95.4,121.1z M98.6,119.1c-0.2,0-0.3,0-0.5,0.1
			c-0.3,0.1-0.4,0.5-0.4,0.8c0.1,0.7,0.3,1.5,0.5,2.2c0.1,0.2,0.1,0.4,0.1,0.6c0.1-0.3,0.2-0.6,0.3-0.8c0.1-0.2,0.1-0.3,0.2-0.5
			c0.1-0.2,0.1-0.3,0.2-0.5c0.1-0.3,0.2-0.6,0.3-0.9c0.1-0.3,0-0.6-0.3-0.7C98.9,119.2,98.8,119.1,98.6,119.1L98.6,119.1z"/>
	</g>
</g>
</svg>
