<?xml version="1.0" encoding="utf-8"?>
<!-- Generator: Adobe Illustrator 28.0.0, SVG Export Plug-In . SVG Version: 6.00 Build 0)  -->
<svg version="1.1" id="Calque_1" xmlns="http://www.w3.org/2000/svg" xmlns:xlink="http://www.w3.org/1999/xlink" x="0px" y="0px"
	 width="190.5px" height="94.1px" viewBox="0 0 190.5 94.1" style="enable-background:new 0 0 190.5 94.1;" xml:space="preserve">
<style type="text/css">
	.st0{fill:#FEF8EE;}
	.st1{fill:none;stroke:#2D2D29;}
	.st2{fill:#2D2D29;}
	.st3{clip-path:url(#SVGID_00000104700531869142808210000009469361095628576415_);}
	.st4{fill:#F7D38D;}
	.st5{clip-path:url(#SVGID_00000152222556980291574320000000206009553429535665_);}
</style>
<path class="st0" d="M5.3,43.2l78.5-42c1.8-1,3.9-1.4,6-1.1l88.3,11.6c4.3,0.6,7.8,3.8,8.5,8.1l3.7,20.6c0.8,4.3-1.3,8.6-5.1,10.6
	l-78.5,42c-1.8,1-3.9,1.4-6,1.1L12.5,82.5c-4.3-0.6-7.8-3.8-8.5-8.1L0.2,53.8C-0.6,49.5,1.5,45.2,5.3,43.2z"/>
<path class="st1" d="M9.5,46.1L86.8,7.2c0.9-0.4,1.8-0.6,2.8-0.5l86,9.1c2.2,0.2,4,1.9,4.4,4.1l4.1,22.3c0.4,2.2-0.7,4.4-2.7,5.4
	l-77.3,38.9c-0.9,0.4-1.8,0.6-2.8,0.5l-86-9.1c-2.2-0.2-4-1.9-4.4-4.1L6.9,51.5C6.5,49.3,7.5,47.1,9.5,46.1z"/>
<path class="st2" d="M55,45.3l-1.5-8.4l5.6-1l0.2,1l-4.5,0.8l0.5,2.8l3.6-0.7l0.1,0.8l-3.6,0.7l0.5,2.9l4.6-0.8l0.2,1L55,45.3z
	 M62.7,43.9l-1.5-8.4l1.7-0.3l5.8,6.1l0,0l-1.3-7l1-0.2l1.5,8.4l-1.3,0.2l-6.4-6.7l0,0l1.4,7.6L62.7,43.9z M74.7,41.8l-1.4-7.5
	l-2.8,0.5l-0.2-1l6.7-1.2l0.2,1l-2.8,0.5l1.4,7.5L74.7,41.8z M80.3,40.7l-1.5-8.4l3.5-0.6c2.1-0.4,3.3,0.4,3.6,1.8
	c0.2,1.1-0.1,2-1.3,2.3l0,0c1.2-0.1,1.7,0.6,1.9,1.7l0.4,2l-1.1,0.2l-0.4-2c-0.2-0.9-0.7-1.4-2.1-1.1L80.8,37l0.6,3.5L80.3,40.7z
	 M80.6,36.2l2.4-0.4c1.5-0.3,2-1,1.8-2c-0.2-0.9-1-1.4-2.4-1.1l-2.4,0.4L80.6,36.2z M89.3,39.1l-1.5-8.4l5.6-1l0.2,1L89,31.5
	l0.5,2.8l3.6-0.7l0.1,0.8l-3.6,0.7l0.5,2.9l4.6-0.8l0.2,1L89.3,39.1z M96.9,37.7l-1.5-8.4l3.4-0.6c2-0.4,3.4,0.5,3.7,2.3
	c0.3,1.8-0.6,3-2.5,3.4l-2.5,0.5l0.5,2.8L96.9,37.7z M97.4,33.9l2.4-0.4c1.3-0.2,1.9-1,1.7-2.3c-0.2-1.3-1.1-1.8-2.6-1.5l-2.2,0.4
	L97.4,33.9z M105.7,36.1l-1.5-8.4l3.5-0.6c2.1-0.4,3.3,0.4,3.6,1.8c0.2,1.1-0.1,2-1.3,2.3l0,0c1.2-0.1,1.7,0.6,1.9,1.7l0.4,2
	l-1.1,0.2l-0.4-2c-0.2-0.9-0.7-1.4-2.1-1.1l-2.6,0.5l0.6,3.5L105.7,36.1z M106,31.6l2.4-0.4c1.5-0.3,2-1,1.8-2
	c-0.2-0.9-1-1.4-2.4-1.1l-2.4,0.4L106,31.6z M114.6,34.5l-1.5-8.4l1.1-0.2l1.5,8.4L114.6,34.5z M121.4,33.4
	c-2.7,0.5-3.7-0.9-3.9-2.4l1-0.2c0.2,1.2,1,2,2.8,1.6c1.9-0.4,2.3-1.2,2.2-2c-0.1-0.5-0.4-0.8-0.8-0.9c-0.5-0.1-1.5,0-2.2,0
	c-0.9,0.1-1.8,0-2.4-0.2c-0.5-0.2-1-0.7-1.1-1.5c-0.3-1.5,0.9-2.8,2.9-3.2c2.4-0.4,3.5,0.5,3.8,2.4l-1,0.2c-0.3-1.5-1.2-2-2.6-1.7
	c-1.4,0.2-2.2,1-2.1,2c0.1,0.5,0.4,0.8,0.8,0.9c0.4,0.1,1.5,0.1,2.2,0.1c0.9,0,1.8-0.1,2.4,0.1c0.6,0.2,1.1,0.7,1.2,1.5
	C124.7,31.5,124.1,32.9,121.4,33.4z M127.1,32.2l-1.5-8.4l5.6-1l0.2,1l-4.5,0.8l0.5,2.8l3.6-0.7l0.1,0.8l-3.6,0.7L128,31l4.6-0.8
	l0.2,1L127.1,32.2z"/>
<path class="st2" d="M46,56.1l-7.5,1.4l0.8,4.2l6.7-1.2l0.4,2.2l-6.7,1.2l1,5.3L38,69.5l-2.5-13.8l10.1-1.8L46,56.1z M62.9,65
	l-2.8,0.5L56.6,62c-0.2,0.1-0.4,0.1-0.5,0.1L53,62.7l0.7,4l-2.6,0.5l-2.5-13.8l5.7-1c3.6-0.7,6.2,0.8,6.8,3.8
	c0.4,2.1-0.4,3.8-2.1,4.9L62.9,65z M58.5,56.6c-0.3-1.7-1.7-2.5-3.9-2.1l-3,0.5l1,5.5l3-0.5C57.8,59.6,58.8,58.4,58.5,56.6z
	 M76.4,62.5l-2-2.9l-6.9,1.3l-0.8,3.4l-2.6,0.5l3.7-14.9l2.5-0.5L79.1,62L76.4,62.5z M68.1,58.7l5.2-0.9l-3.7-5.5L68.1,58.7z
	 M88.6,46.1l2.5-0.5l2.5,13.8l-2.1,0.4l-9.3-7.9l1.7,9.3l-2.5,0.5l-2.5-13.8l2.1-0.4l9.3,7.9L88.6,46.1z M104.1,55.4
	c1.4-0.3,2.6-1,3.4-2.3l1.9,1.3c-1,1.7-2.7,2.8-4.8,3.3l-0.1,0.8c1.2-0.1,1.9,0.5,2,1.3c0.2,1.1-0.7,2.1-2.3,2.4
	c-0.7,0.1-1.3,0.1-1.9-0.1l0.2-1.2c0.5,0.1,0.9,0.2,1.4,0.1c0.7-0.1,1-0.5,0.9-0.9c-0.1-0.4-0.4-0.6-1.2-0.5l-0.6,0.1l0.1-1.8
	c-3.7,0.2-6.9-2.1-7.5-5.9c-0.8-4.1,1.9-7.7,6.1-8.4c2.2-0.4,4.3,0,5.9,1.3l-1.4,1.9c-1.2-0.9-2.5-1.2-4-0.9c-2.9,0.5-4.6,2.9-4,5.7
	C98.8,54.2,101.3,55.9,104.1,55.4z M122.9,54l-2-2.9l-6.9,1.3l-0.8,3.4l-2.6,0.5l3.7-14.9l2.5-0.5l8.7,12.6L122.9,54z M114.5,50.2
	l5.2-0.9l-3.7-5.5L114.5,50.2z M127.9,53.1l-2.5-13.8l2.6-0.5l2.5,13.8L127.9,53.1z M139.1,51.3c-2.1,0.4-4.4,0.1-5.7-0.7l0.5-2.1
	c1.3,0.7,3.1,1,4.8,0.7c2.1-0.4,2.9-1.3,2.7-2.3c-0.5-3-8.4,0.5-9.3-4.6c-0.4-2.2,1-4.4,4.8-5.1c1.7-0.3,3.5-0.2,4.8,0.4l-0.4,2.1
	c-1.4-0.5-2.8-0.6-4-0.4c-2.1,0.4-2.8,1.4-2.7,2.4c0.5,2.9,8.4-0.5,9.3,4.6C144.3,48.4,142.9,50.6,139.1,51.3z M149.9,46.9l7.8-1.4
	l0.4,2.1l-10.3,1.9l-2.5-13.8l10.1-1.8l0.4,2.1l-7.5,1.4l0.7,3.6l6.6-1.2l0.4,2.1l-6.7,1.2L149.9,46.9z"/>
<g>
	<defs>
		
			<rect id="SVGID_1_" x="14.5" y="53.4" transform="matrix(0.9838 -0.1795 0.1795 0.9838 -10.3216 4.7356)" width="13" height="12"/>
	</defs>
	<clipPath id="SVGID_00000119802196249284608420000011847750434059626407_">
		<use xlink:href="#SVGID_1_"  style="overflow:visible;"/>
	</clipPath>
	<g style="clip-path:url(#SVGID_00000119802196249284608420000011847750434059626407_);">
		<path class="st4" d="M27,56.7c-0.3-0.5-0.8-0.7-1.4-0.7c-0.4,0-0.7,0.2-0.9,0.4l-3.4,3c0,0-0.1,0-0.1-0.1l0.5-4.2
			c0.1-0.8-0.4-1.5-1.1-1.7c-0.5-0.1-1,0-1.4,0.3c-0.6,0.4-0.8,1.3-0.4,2l2,3.8c0,0.1,0,0.1-0.1,0.1L16.5,58c-0.3-0.1-0.7-0.2-1-0.1
			c-0.6,0.2-1,0.6-1,1.1c0,0.3,0,0.5,0.1,0.8c0.3,0.7,1,1.1,1.8,1l4.3-0.8c0.1,0,0.1,0.1,0.1,0.1l-2.9,3.1c-0.4,0.4-0.6,1-0.4,1.6
			c0.1,0.4,0.4,0.7,0.8,0.9c0.3,0.1,0.6,0.2,1,0.1c0,0,0,0,0.1,0c0.6-0.1,1.1-0.7,1.2-1.3l0.6-4.2c0-0.1,0.1-0.1,0.1,0l2.1,3.7
			c0.3,0.6,1,0.9,1.6,0.8c0,0,0,0,0.1,0c0.3-0.1,0.6-0.2,0.9-0.5c0.3-0.3,0.5-0.7,0.4-1.1c0-0.5-0.4-1.1-0.9-1.3L21.6,60
			c-0.1,0,0-0.1,0-0.1l4.3-0.8c0.8-0.1,1.4-0.8,1.4-1.6C27.2,57.2,27.2,57,27,56.7L27,56.7z"/>
	</g>
</g>
<g>
	<defs>
		
			<rect id="SVGID_00000010301952237853242050000007655635393103060653_" x="163.1" y="26.3" transform="matrix(0.9838 -0.1795 0.1795 0.9838 -3.0463 30.9549)" width="13" height="12"/>
	</defs>
	<clipPath id="SVGID_00000090280207036491494200000017016044747901817774_">
		<use xlink:href="#SVGID_00000010301952237853242050000007655635393103060653_"  style="overflow:visible;"/>
	</clipPath>
	<g style="clip-path:url(#SVGID_00000090280207036491494200000017016044747901817774_);">
		<path class="st4" d="M175.6,29.6c-0.3-0.5-0.8-0.7-1.4-0.7c-0.4,0-0.7,0.2-0.9,0.4l-3.4,3c0,0-0.1,0-0.1-0.1l0.5-4.2
			c0.1-0.8-0.4-1.5-1.1-1.7c-0.5-0.1-1,0-1.4,0.3c-0.6,0.4-0.8,1.3-0.4,2l2,3.8c0,0.1,0,0.1-0.1,0.1l-4.2-1.7
			c-0.3-0.1-0.7-0.2-1-0.1c-0.6,0.2-1,0.6-1,1.1c0,0.3,0,0.5,0.1,0.8c0.3,0.7,1,1.1,1.8,1l4.3-0.8c0.1,0,0.1,0.1,0.1,0.1l-2.9,3.1
			c-0.4,0.4-0.6,1-0.4,1.6c0.1,0.4,0.4,0.7,0.8,0.9c0.3,0.1,0.6,0.2,1,0.1c0,0,0,0,0.1,0c0.6-0.1,1.1-0.7,1.2-1.3l0.6-4.2
			c0-0.1,0.1-0.1,0.1,0l2.1,3.7c0.3,0.6,1,0.9,1.6,0.8c0,0,0,0,0.1,0c0.3-0.1,0.6-0.2,0.9-0.5c0.3-0.3,0.5-0.7,0.4-1.1
			c0-0.5-0.4-1.1-0.9-1.3l-3.8-1.9c-0.1,0,0-0.1,0-0.1l4.3-0.8c0.8-0.1,1.4-0.8,1.4-1.6C175.8,30.1,175.7,29.9,175.6,29.6
			L175.6,29.6z"/>
	</g>
</g>
</svg>
